<?xml version="1.0" encoding="UTF-8"?>
<svg viewBox="0 0 36 34" version="1.1" xmlns="http://www.w3.org/2000/svg" xmlns:xlink="http://www.w3.org/1999/xlink">
    <title>01 Core/01 Logos/VUB Icon</title>
    <g id="🌔-03-Organisms---Navigation" stroke="none" stroke-width="1" fill="none" fill-rule="evenodd">
        <g id="04-Organisms/01-Navigation/1-Desktop/01-Side-Nav/Closed-Nav/01-NAV-Closed" transform="translate(-22.000000, -26.000000)">
            <g id="Icon-Logo-VUB" transform="translate(22.000000, 26.000000)">
                <path d="M36,0 L36,34 L2.89655172,34 L2.89655172,17.480443 L5.5760217,24.9290537 L8.36663566,24.9290537 L12.8763366,12.1193363 L12.9078799,12.0206642 L12.9305136,12.0206642 L12.9303786,19.1901738 C12.9303786,20.329825 12.9991799,21.4222891 13.4473557,22.4056362 C14.2647364,24.070075 15.9684792,25.2376871 17.9589465,25.3210153 C18.0346324,25.3242042 18.1107233,25.3259142 18.1872641,25.3259142 L18.1872641,25.3259142 C18.26412,25.3259142 18.3402108,25.3242042 18.4159417,25.3210153 C20.406364,25.2376871 22.1101518,24.070075 22.9275325,22.4056362 C23.3756633,21.4222891 23.4444646,20.329825 23.4444646,19.1901738 L23.4444646,19.1901738 L23.4443296,9.06572385 L20.6778343,9.06572385 L20.6778343,19.7950546 C20.665145,20.3197036 20.610023,20.8284541 20.3787805,21.3034666 C20.0040858,21.9803988 19.3113033,22.4642849 18.4963974,22.5634654 C18.4685889,22.5668854 18.4406004,22.5697046 18.4125219,22.5721541 C18.3384109,22.5787168 18.263445,22.5822755 18.1876241,22.5823679 L18.1876241,22.5823679 C18.1114432,22.5822755 18.0364323,22.5787168 17.9623663,22.5721541 C17.9342428,22.5697046 17.9062993,22.5668854 17.8784908,22.5634654 C17.0635849,22.4642849 16.3707574,21.9803988 15.9960627,21.3034666 C15.7648652,20.8284541 15.7097432,20.3197036 15.6970539,19.7950546 L15.6970539,19.7950546 L15.6970539,9.06572385 L12.184139,9.06572385 C11.3460144,9.06572385 10.6350079,9.63959335 10.41074,10.425966 C10.4024155,10.4469945 10.3974657,10.4619224 10.3974657,10.4619224 L10.3974657,10.4619224 L6.95366713,20.7952707 L6.94120281,20.7952707 L2.89655172,9.06567763 L2.89655172,0 L36,0 Z M32.0175356,9.66062183 C30.7207507,8.9947354 29.2985127,9.05925355 27.8970636,9.05925355 L27.8970636,9.05925355 L24.3069329,9.06572385 L24.304278,24.935108 L28.9637308,24.935108 C30.4487405,24.8922654 32.0175356,24.8064415 33.2516838,23.8825749 C34.4439842,22.958847 35.1341569,21.6484261 35.1341569,20.1014695 C35.1341569,18.2970412 34.1929428,16.8147876 32.4986945,16.2560771 C33.6281784,15.6975053 34.1929428,14.4729545 34.1929428,13.226867 C34.1929428,11.7446134 33.2935765,10.3266469 32.0175356,9.66062183 Z M30.4457087,14.9138177 C30.9884508,14.6572537 31.3223388,14.0587883 31.3223388,13.4603689 C31.3223388,12.8191429 30.9258215,12.3062448 30.3623378,12.0711071 C29.9395117,11.8841097 29.0893699,11.9215368 28.4841333,11.9215368 L27.1844078,11.9191918 L27.1844078,15.1521739 L28.5050098,15.1487715 C29.1102464,15.1487715 29.9031463,15.1703357 30.4457087,14.9138177 M31.5147786,21.5223497 C32.0370245,21.1567711 32.2668666,20.6406301 32.2668666,19.973788 C32.2668666,19.1995071 31.9117214,18.7262583 31.2431389,18.3391179 C30.59559,17.9950547 29.9060637,18.0165702 29.2167171,18.0165702 L27.1844078,18.0167553 L27.1844078,22.0808277 L29.1539757,22.0815217 C29.9897039,22.0815217 30.7626907,22.0386758 31.5147786,21.5223497" id="Fill-25" fill="#00339A"></path>
                <polyline id="Fill-28" fill="#E36539" points="0 8.925 2.89655172 17.425 2.89655172 8.925 0 8.925"></polyline>
            </g>
        </g>
    </g>
</svg>
